<mxfile host="app.diagrams.net" agent="Mozilla/5.0 (Macintosh; Intel Mac OS X 10_15_7) AppleWebKit/537.36 (KHTML, like Gecko) Chrome/131.0.0.0 Safari/537.36" version="26.0.5">
  <diagram name="Page-1" id="gJ5v3Zoehp2Gd4oa3n2G">
    <mxGraphModel dx="1877" dy="1145" grid="1" gridSize="10" guides="1" tooltips="1" connect="1" arrows="1" fold="1" page="1" pageScale="1" pageWidth="850" pageHeight="1100" math="0" shadow="0">
      <root>
        <mxCell id="0" />
        <mxCell id="1" parent="0" />
        <mxCell id="YT0X0N5fOApJLCYm_wmW-1" value="Client" style="swimlane;fontStyle=0;childLayout=stackLayout;horizontal=1;startSize=26;fillColor=none;horizontalStack=0;resizeParent=1;resizeParentMax=0;resizeLast=0;collapsible=1;marginBottom=0;whiteSpace=wrap;html=1;" vertex="1" parent="1">
          <mxGeometry x="120" y="280" width="160" height="52" as="geometry" />
        </mxCell>
        <mxCell id="YT0X0N5fOApJLCYm_wmW-2" value="Main()" style="text;strokeColor=none;fillColor=none;align=left;verticalAlign=top;spacingLeft=4;spacingRight=4;overflow=hidden;rotatable=0;points=[[0,0.5],[1,0.5]];portConstraint=eastwest;whiteSpace=wrap;html=1;" vertex="1" parent="YT0X0N5fOApJLCYm_wmW-1">
          <mxGeometry y="26" width="160" height="26" as="geometry" />
        </mxCell>
        <mxCell id="YT0X0N5fOApJLCYm_wmW-5" value="Car" style="swimlane;fontStyle=0;childLayout=stackLayout;horizontal=1;startSize=26;fillColor=none;horizontalStack=0;resizeParent=1;resizeParentMax=0;resizeLast=0;collapsible=1;marginBottom=0;whiteSpace=wrap;html=1;" vertex="1" parent="1">
          <mxGeometry x="450" y="240" width="160" height="120" as="geometry" />
        </mxCell>
        <mxCell id="YT0X0N5fOApJLCYm_wmW-6" value="Type&lt;div&gt;HasFrontDoor&lt;/div&gt;&lt;div&gt;HasBackFoor&lt;/div&gt;&lt;div&gt;HasMoonRoof&lt;/div&gt;&lt;div&gt;&lt;br&gt;&lt;/div&gt;&lt;div&gt;DisplayFeatures()&lt;/div&gt;" style="text;strokeColor=none;fillColor=none;align=left;verticalAlign=top;spacingLeft=4;spacingRight=4;overflow=hidden;rotatable=0;points=[[0,0.5],[1,0.5]];portConstraint=eastwest;whiteSpace=wrap;html=1;" vertex="1" parent="YT0X0N5fOApJLCYm_wmW-5">
          <mxGeometry y="26" width="160" height="94" as="geometry" />
        </mxCell>
        <mxCell id="YT0X0N5fOApJLCYm_wmW-7" style="edgeStyle=orthogonalEdgeStyle;rounded=0;orthogonalLoop=1;jettySize=auto;html=1;entryX=-0.025;entryY=0.426;entryDx=0;entryDy=0;entryPerimeter=0;" edge="1" parent="1" source="YT0X0N5fOApJLCYm_wmW-1" target="YT0X0N5fOApJLCYm_wmW-6">
          <mxGeometry relative="1" as="geometry" />
        </mxCell>
        <mxCell id="YT0X0N5fOApJLCYm_wmW-8" value="ICarBuilder" style="swimlane;fontStyle=0;childLayout=stackLayout;horizontal=1;startSize=26;fillColor=none;horizontalStack=0;resizeParent=1;resizeParentMax=0;resizeLast=0;collapsible=1;marginBottom=0;whiteSpace=wrap;html=1;" vertex="1" parent="1">
          <mxGeometry x="320" y="600" width="140" height="104" as="geometry" />
        </mxCell>
        <mxCell id="YT0X0N5fOApJLCYm_wmW-9" value="AddFrontDoor()" style="text;strokeColor=none;fillColor=none;align=left;verticalAlign=top;spacingLeft=4;spacingRight=4;overflow=hidden;rotatable=0;points=[[0,0.5],[1,0.5]];portConstraint=eastwest;whiteSpace=wrap;html=1;" vertex="1" parent="YT0X0N5fOApJLCYm_wmW-8">
          <mxGeometry y="26" width="140" height="26" as="geometry" />
        </mxCell>
        <mxCell id="YT0X0N5fOApJLCYm_wmW-10" value="AddBackDoor()" style="text;strokeColor=none;fillColor=none;align=left;verticalAlign=top;spacingLeft=4;spacingRight=4;overflow=hidden;rotatable=0;points=[[0,0.5],[1,0.5]];portConstraint=eastwest;whiteSpace=wrap;html=1;" vertex="1" parent="YT0X0N5fOApJLCYm_wmW-8">
          <mxGeometry y="52" width="140" height="26" as="geometry" />
        </mxCell>
        <mxCell id="YT0X0N5fOApJLCYm_wmW-11" value="AddMoonRoof()" style="text;strokeColor=none;fillColor=none;align=left;verticalAlign=top;spacingLeft=4;spacingRight=4;overflow=hidden;rotatable=0;points=[[0,0.5],[1,0.5]];portConstraint=eastwest;whiteSpace=wrap;html=1;" vertex="1" parent="YT0X0N5fOApJLCYm_wmW-8">
          <mxGeometry y="78" width="140" height="26" as="geometry" />
        </mxCell>
        <mxCell id="YT0X0N5fOApJLCYm_wmW-13" value="SedanBuilder" style="swimlane;fontStyle=0;childLayout=stackLayout;horizontal=1;startSize=26;fillColor=none;horizontalStack=0;resizeParent=1;resizeParentMax=0;resizeLast=0;collapsible=1;marginBottom=0;whiteSpace=wrap;html=1;" vertex="1" parent="1">
          <mxGeometry x="200" y="760" width="140" height="104" as="geometry" />
        </mxCell>
        <mxCell id="YT0X0N5fOApJLCYm_wmW-14" value="AddFrontDoor()" style="text;strokeColor=none;fillColor=none;align=left;verticalAlign=top;spacingLeft=4;spacingRight=4;overflow=hidden;rotatable=0;points=[[0,0.5],[1,0.5]];portConstraint=eastwest;whiteSpace=wrap;html=1;" vertex="1" parent="YT0X0N5fOApJLCYm_wmW-13">
          <mxGeometry y="26" width="140" height="26" as="geometry" />
        </mxCell>
        <mxCell id="YT0X0N5fOApJLCYm_wmW-15" value="AddBackDoor()" style="text;strokeColor=none;fillColor=none;align=left;verticalAlign=top;spacingLeft=4;spacingRight=4;overflow=hidden;rotatable=0;points=[[0,0.5],[1,0.5]];portConstraint=eastwest;whiteSpace=wrap;html=1;" vertex="1" parent="YT0X0N5fOApJLCYm_wmW-13">
          <mxGeometry y="52" width="140" height="26" as="geometry" />
        </mxCell>
        <mxCell id="YT0X0N5fOApJLCYm_wmW-16" value="AddMoonRoof()" style="text;strokeColor=none;fillColor=none;align=left;verticalAlign=top;spacingLeft=4;spacingRight=4;overflow=hidden;rotatable=0;points=[[0,0.5],[1,0.5]];portConstraint=eastwest;whiteSpace=wrap;html=1;" vertex="1" parent="YT0X0N5fOApJLCYm_wmW-13">
          <mxGeometry y="78" width="140" height="26" as="geometry" />
        </mxCell>
        <mxCell id="YT0X0N5fOApJLCYm_wmW-23" style="edgeStyle=orthogonalEdgeStyle;rounded=0;orthogonalLoop=1;jettySize=auto;html=1;exitX=0.5;exitY=0;exitDx=0;exitDy=0;entryX=0.579;entryY=1;entryDx=0;entryDy=0;entryPerimeter=0;" edge="1" parent="1" source="YT0X0N5fOApJLCYm_wmW-17" target="YT0X0N5fOApJLCYm_wmW-11">
          <mxGeometry relative="1" as="geometry">
            <mxPoint x="400" y="710" as="targetPoint" />
          </mxGeometry>
        </mxCell>
        <mxCell id="YT0X0N5fOApJLCYm_wmW-17" value="SuvBuilder" style="swimlane;fontStyle=0;childLayout=stackLayout;horizontal=1;startSize=26;fillColor=none;horizontalStack=0;resizeParent=1;resizeParentMax=0;resizeLast=0;collapsible=1;marginBottom=0;whiteSpace=wrap;html=1;" vertex="1" parent="1">
          <mxGeometry x="400" y="760" width="140" height="104" as="geometry" />
        </mxCell>
        <mxCell id="YT0X0N5fOApJLCYm_wmW-18" value="AddFrontDoor()" style="text;strokeColor=none;fillColor=none;align=left;verticalAlign=top;spacingLeft=4;spacingRight=4;overflow=hidden;rotatable=0;points=[[0,0.5],[1,0.5]];portConstraint=eastwest;whiteSpace=wrap;html=1;" vertex="1" parent="YT0X0N5fOApJLCYm_wmW-17">
          <mxGeometry y="26" width="140" height="26" as="geometry" />
        </mxCell>
        <mxCell id="YT0X0N5fOApJLCYm_wmW-19" value="AddBackDoor()" style="text;strokeColor=none;fillColor=none;align=left;verticalAlign=top;spacingLeft=4;spacingRight=4;overflow=hidden;rotatable=0;points=[[0,0.5],[1,0.5]];portConstraint=eastwest;whiteSpace=wrap;html=1;" vertex="1" parent="YT0X0N5fOApJLCYm_wmW-17">
          <mxGeometry y="52" width="140" height="26" as="geometry" />
        </mxCell>
        <mxCell id="YT0X0N5fOApJLCYm_wmW-20" value="AddMoonRoof()" style="text;strokeColor=none;fillColor=none;align=left;verticalAlign=top;spacingLeft=4;spacingRight=4;overflow=hidden;rotatable=0;points=[[0,0.5],[1,0.5]];portConstraint=eastwest;whiteSpace=wrap;html=1;" vertex="1" parent="YT0X0N5fOApJLCYm_wmW-17">
          <mxGeometry y="78" width="140" height="26" as="geometry" />
        </mxCell>
        <mxCell id="YT0X0N5fOApJLCYm_wmW-21" style="edgeStyle=orthogonalEdgeStyle;rounded=0;orthogonalLoop=1;jettySize=auto;html=1;entryX=0.286;entryY=1.038;entryDx=0;entryDy=0;entryPerimeter=0;" edge="1" parent="1" source="YT0X0N5fOApJLCYm_wmW-13" target="YT0X0N5fOApJLCYm_wmW-11">
          <mxGeometry relative="1" as="geometry" />
        </mxCell>
        <mxCell id="YT0X0N5fOApJLCYm_wmW-24" value="CarAssembleManager" style="swimlane;fontStyle=0;childLayout=stackLayout;horizontal=1;startSize=26;fillColor=none;horizontalStack=0;resizeParent=1;resizeParentMax=0;resizeLast=0;collapsible=1;marginBottom=0;whiteSpace=wrap;html=1;" vertex="1" parent="1">
          <mxGeometry x="-40" y="600" width="140" height="52" as="geometry" />
        </mxCell>
        <mxCell id="YT0X0N5fOApJLCYm_wmW-27" value="Construct()" style="text;strokeColor=none;fillColor=none;align=left;verticalAlign=top;spacingLeft=4;spacingRight=4;overflow=hidden;rotatable=0;points=[[0,0.5],[1,0.5]];portConstraint=eastwest;whiteSpace=wrap;html=1;" vertex="1" parent="YT0X0N5fOApJLCYm_wmW-24">
          <mxGeometry y="26" width="140" height="26" as="geometry" />
        </mxCell>
        <mxCell id="YT0X0N5fOApJLCYm_wmW-28" value="" style="endArrow=diamondThin;endFill=1;endSize=24;html=1;rounded=0;entryX=1.029;entryY=0.385;entryDx=0;entryDy=0;entryPerimeter=0;" edge="1" parent="1" target="YT0X0N5fOApJLCYm_wmW-24">
          <mxGeometry width="160" relative="1" as="geometry">
            <mxPoint x="320" y="620" as="sourcePoint" />
            <mxPoint x="220" y="620" as="targetPoint" />
          </mxGeometry>
        </mxCell>
        <mxCell id="YT0X0N5fOApJLCYm_wmW-29" value="Car car = builder.AddFrontDoor()&lt;div&gt;.AddBackDoor()&lt;/div&gt;&lt;div&gt;.AddMoonRoof()&lt;/div&gt;&lt;div&gt;.Build()&lt;/div&gt;" style="html=1;whiteSpace=wrap;" vertex="1" parent="1">
          <mxGeometry x="-40" y="760" width="150" height="120" as="geometry" />
        </mxCell>
        <mxCell id="YT0X0N5fOApJLCYm_wmW-32" value="" style="shape=partialRectangle;fillColor=none;align=left;verticalAlign=middle;strokeColor=none;spacingLeft=34;rotatable=0;points=[[0,0.5],[1,0.5]];portConstraint=eastwest;dropTarget=0;" vertex="1" parent="1">
          <mxGeometry x="-10" y="652" width="90" height="108" as="geometry" />
        </mxCell>
        <mxCell id="YT0X0N5fOApJLCYm_wmW-33" value="" style="shape=partialRectangle;top=0;left=0;bottom=0;fillColor=none;stokeWidth=1;dashed=1;align=left;verticalAlign=middle;spacingLeft=4;spacingRight=4;overflow=hidden;rotatable=0;points=[];portConstraint=eastwest;part=1;" vertex="1" connectable="0" parent="YT0X0N5fOApJLCYm_wmW-32">
          <mxGeometry width="30" height="108" as="geometry" />
        </mxCell>
        <mxCell id="YT0X0N5fOApJLCYm_wmW-34" value="Car" style="html=1;whiteSpace=wrap;" vertex="1" parent="1">
          <mxGeometry x="600" y="601" width="110" height="50" as="geometry" />
        </mxCell>
        <mxCell id="YT0X0N5fOApJLCYm_wmW-35" value="Sedan" style="html=1;whiteSpace=wrap;" vertex="1" parent="1">
          <mxGeometry x="720" y="704" width="110" height="36" as="geometry" />
        </mxCell>
        <mxCell id="YT0X0N5fOApJLCYm_wmW-39" style="edgeStyle=orthogonalEdgeStyle;rounded=0;orthogonalLoop=1;jettySize=auto;html=1;entryX=0.25;entryY=1;entryDx=0;entryDy=0;" edge="1" parent="1" source="YT0X0N5fOApJLCYm_wmW-36" target="YT0X0N5fOApJLCYm_wmW-34">
          <mxGeometry relative="1" as="geometry" />
        </mxCell>
        <mxCell id="YT0X0N5fOApJLCYm_wmW-36" value="SUV" style="html=1;whiteSpace=wrap;" vertex="1" parent="1">
          <mxGeometry x="560" y="704" width="110" height="36" as="geometry" />
        </mxCell>
        <mxCell id="YT0X0N5fOApJLCYm_wmW-37" style="edgeStyle=orthogonalEdgeStyle;rounded=0;orthogonalLoop=1;jettySize=auto;html=1;entryX=0.5;entryY=1;entryDx=0;entryDy=0;" edge="1" parent="1" source="YT0X0N5fOApJLCYm_wmW-19" target="YT0X0N5fOApJLCYm_wmW-36">
          <mxGeometry relative="1" as="geometry" />
        </mxCell>
        <mxCell id="YT0X0N5fOApJLCYm_wmW-38" style="edgeStyle=orthogonalEdgeStyle;rounded=0;orthogonalLoop=1;jettySize=auto;html=1;entryX=0.682;entryY=1.056;entryDx=0;entryDy=0;entryPerimeter=0;" edge="1" parent="1" source="YT0X0N5fOApJLCYm_wmW-13" target="YT0X0N5fOApJLCYm_wmW-35">
          <mxGeometry relative="1" as="geometry">
            <Array as="points">
              <mxPoint x="270" y="930" />
              <mxPoint x="795" y="930" />
            </Array>
          </mxGeometry>
        </mxCell>
        <mxCell id="YT0X0N5fOApJLCYm_wmW-40" style="edgeStyle=orthogonalEdgeStyle;rounded=0;orthogonalLoop=1;jettySize=auto;html=1;entryX=0.7;entryY=1.06;entryDx=0;entryDy=0;entryPerimeter=0;" edge="1" parent="1" source="YT0X0N5fOApJLCYm_wmW-35" target="YT0X0N5fOApJLCYm_wmW-34">
          <mxGeometry relative="1" as="geometry" />
        </mxCell>
      </root>
    </mxGraphModel>
  </diagram>
</mxfile>
